<mxfile host="65bd71144e">
    <diagram id="xh9bbtozmvVMBXdD9HAV" name="Page-1">
        <mxGraphModel dx="215" dy="1323" grid="1" gridSize="10" guides="1" tooltips="1" connect="1" arrows="1" fold="1" page="1" pageScale="1" pageWidth="850" pageHeight="1100" math="0" shadow="0">
            <root>
                <mxCell id="0"/>
                <mxCell id="1" parent="0"/>
                <mxCell id="20" style="edgeStyle=none;html=1;exitX=0;exitY=0.165;exitDx=0;exitDy=0;exitPerimeter=0;endArrow=oval;endFill=1;" edge="1" parent="1" source="2">
                    <mxGeometry relative="1" as="geometry">
                        <mxPoint x="350" y="170" as="targetPoint"/>
                    </mxGeometry>
                </mxCell>
                <mxCell id="85" style="edgeStyle=none;html=1;exitX=0.612;exitY=0.89;exitDx=0;exitDy=0;exitPerimeter=0;endArrow=oval;endFill=1;" edge="1" parent="1" source="2">
                    <mxGeometry relative="1" as="geometry">
                        <mxPoint x="617" y="440" as="targetPoint"/>
                    </mxGeometry>
                </mxCell>
                <mxCell id="87" style="edgeStyle=none;html=1;exitX=0.612;exitY=0.11;exitDx=0;exitDy=0;exitPerimeter=0;endArrow=oval;endFill=1;" edge="1" parent="1" source="2">
                    <mxGeometry relative="1" as="geometry">
                        <mxPoint x="617.578947368421" as="targetPoint"/>
                    </mxGeometry>
                </mxCell>
                <mxCell id="90" style="edgeStyle=none;html=1;exitX=1;exitY=0.5;exitDx=0;exitDy=0;exitPerimeter=0;endArrow=oval;endFill=1;" edge="1" parent="1" source="2">
                    <mxGeometry relative="1" as="geometry">
                        <mxPoint x="710" y="209.2702702702702" as="targetPoint"/>
                    </mxGeometry>
                </mxCell>
                <mxCell id="2" value="&lt;span style=&quot;background-color: transparent;&quot;&gt;LM358&lt;/span&gt;" style="verticalLabelPosition=middle;shadow=0;dashed=0;align=center;html=1;verticalAlign=middle;shape=mxgraph.electrical.abstract.operational_amp_1;horizontal=1;labelPosition=center;" vertex="1" parent="1">
                    <mxGeometry x="550" y="150" width="110" height="119" as="geometry"/>
                </mxCell>
                <mxCell id="3" value="R1&lt;div&gt;&lt;span style=&quot;color: rgb(0, 0, 0); text-wrap-mode: wrap;&quot;&gt;11kΩ&lt;/span&gt;&lt;/div&gt;" style="pointerEvents=1;verticalLabelPosition=bottom;shadow=0;dashed=0;align=left;html=1;verticalAlign=top;shape=mxgraph.electrical.resistors.resistor_1;rotation=90;gradientColor=none;horizontal=0;" vertex="1" parent="1">
                    <mxGeometry x="190" y="90" width="100" height="20" as="geometry"/>
                </mxCell>
                <mxCell id="86" style="edgeStyle=none;html=1;endArrow=oval;endFill=1;" edge="1" parent="1" source="4">
                    <mxGeometry relative="1" as="geometry">
                        <mxPoint x="350" as="targetPoint"/>
                    </mxGeometry>
                </mxCell>
                <mxCell id="4" value="R2&lt;div&gt;&lt;span style=&quot;text-wrap-mode: wrap;&quot;&gt;&lt;font style=&quot;color: rgb(0, 0, 0);&quot;&gt;11kΩ&lt;/font&gt;&lt;/span&gt;&lt;/div&gt;" style="pointerEvents=1;verticalLabelPosition=bottom;shadow=0;dashed=0;align=left;html=1;verticalAlign=top;shape=mxgraph.electrical.resistors.resistor_1;rotation=90;horizontal=0;" vertex="1" parent="1">
                    <mxGeometry x="300" y="90" width="100" height="20" as="geometry"/>
                </mxCell>
                <mxCell id="18" style="edgeStyle=none;html=1;exitX=1;exitY=0.5;exitDx=0;exitDy=0;exitPerimeter=0;endArrow=oval;endFill=1;" edge="1" parent="1" source="6">
                    <mxGeometry relative="1" as="geometry">
                        <mxPoint x="350" y="440" as="targetPoint"/>
                    </mxGeometry>
                </mxCell>
                <mxCell id="6" value="R3&lt;div&gt;&lt;font style=&quot;color: rgb(0, 0, 0);&quot; face=&quot;Helvetica&quot;&gt;100&lt;span style=&quot;text-wrap-mode: wrap;&quot;&gt;Ω&lt;/span&gt;&lt;/font&gt;&lt;/div&gt;" style="pointerEvents=1;verticalLabelPosition=bottom;shadow=0;dashed=0;align=left;html=1;verticalAlign=top;shape=mxgraph.electrical.resistors.resistor_1;rotation=90;horizontal=0;" vertex="1" parent="1">
                    <mxGeometry x="300" y="320" width="100" height="20" as="geometry"/>
                </mxCell>
                <mxCell id="7" style="edgeStyle=none;html=1;exitX=1;exitY=0.5;exitDx=0;exitDy=0;exitPerimeter=0;entryX=0;entryY=0.5;entryDx=0;entryDy=0;entryPerimeter=0;endArrow=none;endFill=0;" edge="1" parent="1" source="4" target="6">
                    <mxGeometry relative="1" as="geometry"/>
                </mxCell>
                <mxCell id="8" style="edgeStyle=none;html=1;exitX=1;exitY=0.5;exitDx=0;exitDy=0;exitPerimeter=0;entryX=0;entryY=0.5;entryDx=0;entryDy=0;entryPerimeter=0;endArrow=none;endFill=0;" edge="1" parent="1" source="3" target="9">
                    <mxGeometry relative="1" as="geometry">
                        <mxPoint x="270" y="180" as="sourcePoint"/>
                        <mxPoint x="250" y="220" as="targetPoint"/>
                    </mxGeometry>
                </mxCell>
                <mxCell id="17" style="edgeStyle=none;html=1;exitX=1;exitY=0.5;exitDx=0;exitDy=0;exitPerimeter=0;rounded=0;curved=0;entryX=0.5;entryY=1;entryDx=0;entryDy=0;endArrow=none;endFill=0;" edge="1" parent="1" source="9" target="40">
                    <mxGeometry relative="1" as="geometry">
                        <mxPoint x="760" y="440" as="targetPoint"/>
                        <Array as="points">
                            <mxPoint x="240" y="440"/>
                            <mxPoint x="600" y="440"/>
                            <mxPoint x="905" y="440"/>
                        </Array>
                    </mxGeometry>
                </mxCell>
                <mxCell id="9" value="PT100" style="pointerEvents=1;verticalLabelPosition=bottom;shadow=0;dashed=0;align=center;html=1;verticalAlign=top;shape=mxgraph.electrical.resistors.variable_resistor_1;rotation=90;horizontal=0;labelPosition=center;" vertex="1" parent="1">
                    <mxGeometry x="190" y="300" width="100" height="60" as="geometry"/>
                </mxCell>
                <mxCell id="21" style="edgeStyle=none;html=1;exitX=0;exitY=0.5;exitDx=0;exitDy=0;exitPerimeter=0;endArrow=oval;endFill=1;rounded=0;curved=0;" edge="1" parent="1" source="10">
                    <mxGeometry relative="1" as="geometry">
                        <mxPoint x="480" y="170" as="targetPoint"/>
                        <Array as="points">
                            <mxPoint x="480" y="80"/>
                        </Array>
                    </mxGeometry>
                </mxCell>
                <mxCell id="10" value="R5&lt;div&gt;&lt;span style=&quot;color: rgb(0, 0, 0); text-wrap-mode: wrap;&quot;&gt;20KΩ&lt;/span&gt;&lt;/div&gt;" style="pointerEvents=1;verticalLabelPosition=bottom;shadow=0;dashed=0;align=center;html=1;verticalAlign=top;shape=mxgraph.electrical.resistors.resistor_1;rotation=0;" vertex="1" parent="1">
                    <mxGeometry x="510" y="70" width="100" height="20" as="geometry"/>
                </mxCell>
                <mxCell id="16" style="edgeStyle=none;html=1;exitX=0;exitY=0.5;exitDx=0;exitDy=0;exitPerimeter=0;endArrow=oval;endFill=1;" edge="1" parent="1" source="11">
                    <mxGeometry relative="1" as="geometry">
                        <mxPoint x="510" y="250" as="targetPoint"/>
                    </mxGeometry>
                </mxCell>
                <mxCell id="19" style="edgeStyle=none;html=1;exitX=1;exitY=0.5;exitDx=0;exitDy=0;exitPerimeter=0;endArrow=oval;endFill=1;" edge="1" parent="1" source="11">
                    <mxGeometry relative="1" as="geometry">
                        <mxPoint x="510" y="440" as="targetPoint"/>
                    </mxGeometry>
                </mxCell>
                <mxCell id="11" value="&lt;font style=&quot;color: rgb(0, 0, 0);&quot;&gt;C1&lt;/font&gt;&lt;div&gt;&lt;span style=&quot;font-family: &amp;quot;Google Sans&amp;quot;, Arial, sans-serif; text-wrap-mode: wrap; color: rgb(238, 240, 255);&quot;&gt;&lt;font style=&quot;color: rgb(0, 0, 0);&quot;&gt;1µF&lt;/font&gt;&lt;/span&gt;&lt;/div&gt;" style="pointerEvents=1;verticalLabelPosition=bottom;shadow=0;dashed=0;align=left;html=1;verticalAlign=middle;shape=mxgraph.electrical.capacitors.capacitor_1;rotation=90;horizontal=0;" vertex="1" parent="1">
                    <mxGeometry x="460" y="315" width="100" height="30" as="geometry"/>
                </mxCell>
                <mxCell id="12" value="&lt;font style=&quot;font-size: 16px;&quot;&gt;Arduino Uno&lt;/font&gt;" style="rounded=0;whiteSpace=wrap;html=1;" vertex="1" parent="1">
                    <mxGeometry x="800" y="44.5" width="210" height="350" as="geometry"/>
                </mxCell>
                <mxCell id="15" style="edgeStyle=none;html=1;exitX=1;exitY=0.5;exitDx=0;exitDy=0;exitPerimeter=0;endArrow=oval;endFill=1;" edge="1" parent="1">
                    <mxGeometry relative="1" as="geometry">
                        <mxPoint x="240" y="250" as="targetPoint"/>
                        <mxPoint x="380.0000000000002" y="250" as="sourcePoint"/>
                    </mxGeometry>
                </mxCell>
                <mxCell id="14" style="edgeStyle=none;html=1;exitX=1;exitY=0.5;exitDx=0;exitDy=0;exitPerimeter=0;entryX=0;entryY=0.835;entryDx=0;entryDy=0;entryPerimeter=0;endArrow=none;endFill=0;" edge="1" parent="1" source="26" target="2">
                    <mxGeometry relative="1" as="geometry">
                        <mxPoint x="480.0000000000002" y="250" as="sourcePoint"/>
                    </mxGeometry>
                </mxCell>
                <mxCell id="26" value="&lt;div&gt;R4&lt;/div&gt;&lt;div style=&quot;&quot;&gt;&lt;span style=&quot;color: rgb(0, 0, 0); text-wrap-mode: wrap;&quot;&gt;101Ω&lt;/span&gt;&lt;/div&gt;" style="pointerEvents=1;verticalLabelPosition=top;shadow=0;dashed=0;align=center;html=1;verticalAlign=bottom;shape=mxgraph.electrical.resistors.resistor_1;rotation=0;horizontal=1;labelPosition=center;" vertex="1" parent="1">
                    <mxGeometry x="375" y="240" width="100" height="20" as="geometry"/>
                </mxCell>
                <mxCell id="84" style="edgeStyle=none;html=1;rounded=1;strokeColor=default;align=center;verticalAlign=middle;fontFamily=Helvetica;fontSize=11;fontColor=default;labelBackgroundColor=default;endArrow=none;endFill=0;" edge="1" parent="1" source="32">
                    <mxGeometry relative="1" as="geometry">
                        <mxPoint x="780" y="104.5" as="targetPoint"/>
                    </mxGeometry>
                </mxCell>
                <mxCell id="32" value="RST" style="text;html=1;align=left;verticalAlign=middle;whiteSpace=wrap;rounded=0;" vertex="1" parent="1">
                    <mxGeometry x="800" y="94.5" width="60" height="20" as="geometry"/>
                </mxCell>
                <mxCell id="83" style="edgeStyle=none;html=1;rounded=1;strokeColor=default;align=center;verticalAlign=middle;fontFamily=Helvetica;fontSize=11;fontColor=default;labelBackgroundColor=default;endArrow=none;endFill=0;" edge="1" parent="1" source="33">
                    <mxGeometry relative="1" as="geometry">
                        <mxPoint x="780" y="124.5" as="targetPoint"/>
                    </mxGeometry>
                </mxCell>
                <mxCell id="33" value="AREF" style="text;html=1;align=left;verticalAlign=middle;whiteSpace=wrap;rounded=0;" vertex="1" parent="1">
                    <mxGeometry x="800" y="114.5" width="60" height="20" as="geometry"/>
                </mxCell>
                <mxCell id="34" value="A0" style="text;html=1;align=left;verticalAlign=middle;whiteSpace=wrap;rounded=0;" vertex="1" parent="1">
                    <mxGeometry x="800" y="255.5" width="60" height="19" as="geometry"/>
                </mxCell>
                <mxCell id="60" style="edgeStyle=none;html=1;rounded=1;strokeColor=default;align=center;verticalAlign=middle;fontFamily=Helvetica;fontSize=11;fontColor=default;labelBackgroundColor=default;endArrow=none;endFill=0;" edge="1" parent="1" source="35">
                    <mxGeometry relative="1" as="geometry">
                        <mxPoint x="780" y="284" as="targetPoint"/>
                    </mxGeometry>
                </mxCell>
                <mxCell id="35" value="A1" style="text;html=1;align=left;verticalAlign=middle;whiteSpace=wrap;rounded=0;" vertex="1" parent="1">
                    <mxGeometry x="800" y="274.5" width="60" height="19" as="geometry"/>
                </mxCell>
                <mxCell id="61" style="edgeStyle=none;html=1;rounded=1;strokeColor=default;align=center;verticalAlign=middle;fontFamily=Helvetica;fontSize=11;fontColor=default;labelBackgroundColor=default;endArrow=none;endFill=0;" edge="1" parent="1" source="36">
                    <mxGeometry relative="1" as="geometry">
                        <mxPoint x="780" y="305.5" as="targetPoint"/>
                    </mxGeometry>
                </mxCell>
                <mxCell id="36" value="A2" style="text;html=1;align=left;verticalAlign=middle;whiteSpace=wrap;rounded=0;" vertex="1" parent="1">
                    <mxGeometry x="800" y="296" width="60" height="19" as="geometry"/>
                </mxCell>
                <mxCell id="62" style="edgeStyle=none;html=1;rounded=1;strokeColor=default;align=center;verticalAlign=middle;fontFamily=Helvetica;fontSize=11;fontColor=default;labelBackgroundColor=default;endArrow=none;endFill=0;" edge="1" parent="1" source="37">
                    <mxGeometry relative="1" as="geometry">
                        <mxPoint x="780" y="324.5" as="targetPoint"/>
                    </mxGeometry>
                </mxCell>
                <mxCell id="37" value="A3" style="text;html=1;align=left;verticalAlign=middle;whiteSpace=wrap;rounded=0;" vertex="1" parent="1">
                    <mxGeometry x="800" y="315" width="60" height="19" as="geometry"/>
                </mxCell>
                <mxCell id="63" style="edgeStyle=none;html=1;endArrow=none;endFill=0;rounded=1;strokeColor=default;align=center;verticalAlign=middle;fontFamily=Helvetica;fontSize=11;fontColor=default;labelBackgroundColor=default;" edge="1" parent="1" source="38">
                    <mxGeometry relative="1" as="geometry">
                        <mxPoint x="780" y="344.5" as="targetPoint"/>
                    </mxGeometry>
                </mxCell>
                <mxCell id="38" value="A4" style="text;html=1;align=left;verticalAlign=middle;whiteSpace=wrap;rounded=0;" vertex="1" parent="1">
                    <mxGeometry x="800" y="334.5" width="60" height="20" as="geometry"/>
                </mxCell>
                <mxCell id="64" style="edgeStyle=none;html=1;endArrow=none;endFill=0;" edge="1" parent="1" source="39">
                    <mxGeometry relative="1" as="geometry">
                        <mxPoint x="780" y="364.5" as="targetPoint"/>
                    </mxGeometry>
                </mxCell>
                <mxCell id="39" value="A5" style="text;html=1;align=left;verticalAlign=middle;whiteSpace=wrap;rounded=0;" vertex="1" parent="1">
                    <mxGeometry x="800" y="354.5" width="60" height="20" as="geometry"/>
                </mxCell>
                <mxCell id="40" value="GND" style="text;html=1;align=center;verticalAlign=middle;whiteSpace=wrap;rounded=0;" vertex="1" parent="1">
                    <mxGeometry x="875" y="364.5" width="60" height="30" as="geometry"/>
                </mxCell>
                <mxCell id="82" style="edgeStyle=none;html=1;rounded=1;strokeColor=default;align=center;verticalAlign=middle;fontFamily=Helvetica;fontSize=11;fontColor=default;labelBackgroundColor=default;endArrow=none;endFill=0;" edge="1" parent="1" source="41">
                    <mxGeometry relative="1" as="geometry">
                        <mxPoint x="855" y="20" as="targetPoint"/>
                    </mxGeometry>
                </mxCell>
                <mxCell id="41" value="3V3" style="text;html=1;align=center;verticalAlign=middle;whiteSpace=wrap;rounded=0;" vertex="1" parent="1">
                    <mxGeometry x="840" y="44.5" width="30" height="30" as="geometry"/>
                </mxCell>
                <mxCell id="81" style="edgeStyle=none;html=1;rounded=0;strokeColor=default;align=center;verticalAlign=middle;fontFamily=Helvetica;fontSize=11;fontColor=default;labelBackgroundColor=default;endArrow=none;endFill=0;curved=0;entryX=0;entryY=0.5;entryDx=0;entryDy=0;entryPerimeter=0;" edge="1" parent="1" source="42" target="3">
                    <mxGeometry relative="1" as="geometry">
                        <mxPoint x="240.83333333333334" as="targetPoint"/>
                        <Array as="points">
                            <mxPoint x="883"/>
                            <mxPoint x="240"/>
                        </Array>
                    </mxGeometry>
                </mxCell>
                <mxCell id="42" value="5V" style="text;html=1;align=center;verticalAlign=middle;whiteSpace=wrap;rounded=0;" vertex="1" parent="1">
                    <mxGeometry x="870" y="44.5" width="25" height="30" as="geometry"/>
                </mxCell>
                <mxCell id="80" style="edgeStyle=none;html=1;rounded=1;strokeColor=default;align=center;verticalAlign=middle;fontFamily=Helvetica;fontSize=11;fontColor=default;labelBackgroundColor=default;endArrow=none;endFill=0;" edge="1" parent="1" source="43">
                    <mxGeometry relative="1" as="geometry">
                        <mxPoint x="968" y="20" as="targetPoint"/>
                    </mxGeometry>
                </mxCell>
                <mxCell id="43" value="Vin" style="text;html=1;align=center;verticalAlign=middle;whiteSpace=wrap;rounded=0;" vertex="1" parent="1">
                    <mxGeometry x="950" y="44.5" width="35" height="30" as="geometry"/>
                </mxCell>
                <mxCell id="66" style="edgeStyle=none;html=1;rounded=1;strokeColor=default;align=center;verticalAlign=middle;fontFamily=Helvetica;fontSize=11;fontColor=default;labelBackgroundColor=default;endArrow=none;endFill=0;" edge="1" parent="1" source="44">
                    <mxGeometry relative="1" as="geometry">
                        <mxPoint x="1030" y="364.5" as="targetPoint"/>
                    </mxGeometry>
                </mxCell>
                <mxCell id="44" value="D0" style="text;html=1;align=right;verticalAlign=middle;whiteSpace=wrap;rounded=0;" vertex="1" parent="1">
                    <mxGeometry x="950" y="354.5" width="60" height="20" as="geometry"/>
                </mxCell>
                <mxCell id="67" style="edgeStyle=none;html=1;rounded=1;strokeColor=default;align=center;verticalAlign=middle;fontFamily=Helvetica;fontSize=11;fontColor=default;labelBackgroundColor=default;endArrow=none;endFill=0;" edge="1" parent="1" source="46">
                    <mxGeometry relative="1" as="geometry">
                        <mxPoint x="1030" y="344.5" as="targetPoint"/>
                    </mxGeometry>
                </mxCell>
                <mxCell id="46" value="D1" style="text;html=1;align=right;verticalAlign=middle;whiteSpace=wrap;rounded=0;" vertex="1" parent="1">
                    <mxGeometry x="950" y="334.5" width="60" height="20" as="geometry"/>
                </mxCell>
                <mxCell id="68" style="edgeStyle=none;html=1;rounded=1;strokeColor=default;align=center;verticalAlign=middle;fontFamily=Helvetica;fontSize=11;fontColor=default;labelBackgroundColor=default;endArrow=none;endFill=0;" edge="1" parent="1" source="47">
                    <mxGeometry relative="1" as="geometry">
                        <mxPoint x="1030" y="324.5" as="targetPoint"/>
                    </mxGeometry>
                </mxCell>
                <mxCell id="47" value="D2" style="text;html=1;align=right;verticalAlign=middle;whiteSpace=wrap;rounded=0;" vertex="1" parent="1">
                    <mxGeometry x="950" y="314.5" width="60" height="20" as="geometry"/>
                </mxCell>
                <mxCell id="69" style="edgeStyle=none;html=1;rounded=1;strokeColor=default;align=center;verticalAlign=middle;fontFamily=Helvetica;fontSize=11;fontColor=default;labelBackgroundColor=default;endArrow=none;endFill=0;" edge="1" parent="1" source="48">
                    <mxGeometry relative="1" as="geometry">
                        <mxPoint x="1030" y="305" as="targetPoint"/>
                    </mxGeometry>
                </mxCell>
                <mxCell id="48" value="D3" style="text;html=1;align=right;verticalAlign=middle;whiteSpace=wrap;rounded=0;" vertex="1" parent="1">
                    <mxGeometry x="950" y="295.5" width="60" height="19" as="geometry"/>
                </mxCell>
                <mxCell id="70" style="edgeStyle=none;html=1;rounded=1;strokeColor=default;align=center;verticalAlign=middle;fontFamily=Helvetica;fontSize=11;fontColor=default;labelBackgroundColor=default;endArrow=none;endFill=0;" edge="1" parent="1" source="49">
                    <mxGeometry relative="1" as="geometry">
                        <mxPoint x="1030" y="285.5" as="targetPoint"/>
                    </mxGeometry>
                </mxCell>
                <mxCell id="49" value="D4" style="text;html=1;align=right;verticalAlign=middle;whiteSpace=wrap;rounded=0;" vertex="1" parent="1">
                    <mxGeometry x="950" y="275.5" width="60" height="20" as="geometry"/>
                </mxCell>
                <mxCell id="71" style="edgeStyle=none;html=1;rounded=1;strokeColor=default;align=center;verticalAlign=middle;fontFamily=Helvetica;fontSize=11;fontColor=default;labelBackgroundColor=default;endArrow=none;endFill=0;" edge="1" parent="1" source="50">
                    <mxGeometry relative="1" as="geometry">
                        <mxPoint x="1030" y="265.5" as="targetPoint"/>
                    </mxGeometry>
                </mxCell>
                <mxCell id="50" value="D5" style="text;html=1;align=right;verticalAlign=middle;whiteSpace=wrap;rounded=0;" vertex="1" parent="1">
                    <mxGeometry x="950" y="255.5" width="60" height="20" as="geometry"/>
                </mxCell>
                <mxCell id="72" style="edgeStyle=none;html=1;rounded=1;strokeColor=default;align=center;verticalAlign=middle;fontFamily=Helvetica;fontSize=11;fontColor=default;labelBackgroundColor=default;endArrow=none;endFill=0;" edge="1" parent="1" source="51">
                    <mxGeometry relative="1" as="geometry">
                        <mxPoint x="1030" y="245.5" as="targetPoint"/>
                    </mxGeometry>
                </mxCell>
                <mxCell id="51" value="D6" style="text;html=1;align=right;verticalAlign=middle;whiteSpace=wrap;rounded=0;" vertex="1" parent="1">
                    <mxGeometry x="950" y="235.5" width="60" height="20" as="geometry"/>
                </mxCell>
                <mxCell id="73" style="edgeStyle=none;html=1;rounded=1;strokeColor=default;align=center;verticalAlign=middle;fontFamily=Helvetica;fontSize=11;fontColor=default;labelBackgroundColor=default;endArrow=none;endFill=0;" edge="1" parent="1" source="53">
                    <mxGeometry relative="1" as="geometry">
                        <mxPoint x="1030" y="224" as="targetPoint"/>
                    </mxGeometry>
                </mxCell>
                <mxCell id="53" value="D7" style="text;html=1;align=right;verticalAlign=middle;whiteSpace=wrap;rounded=0;" vertex="1" parent="1">
                    <mxGeometry x="950" y="214" width="60" height="20" as="geometry"/>
                </mxCell>
                <mxCell id="74" style="edgeStyle=none;html=1;rounded=1;strokeColor=default;align=center;verticalAlign=middle;fontFamily=Helvetica;fontSize=11;fontColor=default;labelBackgroundColor=default;endArrow=none;endFill=0;" edge="1" parent="1" source="54">
                    <mxGeometry relative="1" as="geometry">
                        <mxPoint x="1030" y="204" as="targetPoint"/>
                    </mxGeometry>
                </mxCell>
                <mxCell id="54" value="D8" style="text;html=1;align=right;verticalAlign=middle;whiteSpace=wrap;rounded=0;" vertex="1" parent="1">
                    <mxGeometry x="950" y="194" width="60" height="20" as="geometry"/>
                </mxCell>
                <mxCell id="75" style="edgeStyle=none;html=1;rounded=1;strokeColor=default;align=center;verticalAlign=middle;fontFamily=Helvetica;fontSize=11;fontColor=default;labelBackgroundColor=default;endArrow=none;endFill=0;" edge="1" parent="1" source="55">
                    <mxGeometry relative="1" as="geometry">
                        <mxPoint x="1030" y="184" as="targetPoint"/>
                    </mxGeometry>
                </mxCell>
                <mxCell id="55" value="D9" style="text;html=1;align=right;verticalAlign=middle;whiteSpace=wrap;rounded=0;" vertex="1" parent="1">
                    <mxGeometry x="950" y="174" width="60" height="20" as="geometry"/>
                </mxCell>
                <mxCell id="76" style="edgeStyle=none;html=1;rounded=1;strokeColor=default;align=center;verticalAlign=middle;fontFamily=Helvetica;fontSize=11;fontColor=default;labelBackgroundColor=default;endArrow=none;endFill=0;" edge="1" parent="1" source="56">
                    <mxGeometry relative="1" as="geometry">
                        <mxPoint x="1030" y="164.5" as="targetPoint"/>
                    </mxGeometry>
                </mxCell>
                <mxCell id="56" value="D10" style="text;html=1;align=right;verticalAlign=middle;whiteSpace=wrap;rounded=0;" vertex="1" parent="1">
                    <mxGeometry x="950" y="154.5" width="60" height="20" as="geometry"/>
                </mxCell>
                <mxCell id="77" style="edgeStyle=none;html=1;rounded=1;strokeColor=default;align=center;verticalAlign=middle;fontFamily=Helvetica;fontSize=11;fontColor=default;labelBackgroundColor=default;endArrow=none;endFill=0;" edge="1" parent="1" source="57">
                    <mxGeometry relative="1" as="geometry">
                        <mxPoint x="1030" y="144.5" as="targetPoint"/>
                    </mxGeometry>
                </mxCell>
                <mxCell id="57" value="D11" style="text;html=1;align=right;verticalAlign=middle;whiteSpace=wrap;rounded=0;" vertex="1" parent="1">
                    <mxGeometry x="950" y="134.5" width="60" height="20" as="geometry"/>
                </mxCell>
                <mxCell id="78" style="edgeStyle=none;html=1;rounded=1;strokeColor=default;align=center;verticalAlign=middle;fontFamily=Helvetica;fontSize=11;fontColor=default;labelBackgroundColor=default;endArrow=none;endFill=0;" edge="1" parent="1" source="58">
                    <mxGeometry relative="1" as="geometry">
                        <mxPoint x="1030" y="124.5" as="targetPoint"/>
                    </mxGeometry>
                </mxCell>
                <mxCell id="58" value="D12" style="text;html=1;align=right;verticalAlign=middle;whiteSpace=wrap;rounded=0;" vertex="1" parent="1">
                    <mxGeometry x="950" y="114.5" width="60" height="20" as="geometry"/>
                </mxCell>
                <mxCell id="79" style="edgeStyle=none;html=1;rounded=1;strokeColor=default;align=center;verticalAlign=middle;fontFamily=Helvetica;fontSize=11;fontColor=default;labelBackgroundColor=default;endArrow=none;endFill=0;" edge="1" parent="1" source="59">
                    <mxGeometry relative="1" as="geometry">
                        <mxPoint x="1030" y="104.5" as="targetPoint"/>
                    </mxGeometry>
                </mxCell>
                <mxCell id="59" value="D13" style="text;html=1;align=right;verticalAlign=middle;whiteSpace=wrap;rounded=0;" vertex="1" parent="1">
                    <mxGeometry x="950" y="94.5" width="60" height="20" as="geometry"/>
                </mxCell>
                <mxCell id="89" style="edgeStyle=none;html=1;entryX=1;entryY=0.5;entryDx=0;entryDy=0;entryPerimeter=0;endArrow=none;endFill=0;rounded=0;curved=0;" edge="1" parent="1">
                    <mxGeometry relative="1" as="geometry">
                        <mxPoint x="800" y="263.75" as="sourcePoint"/>
                        <mxPoint x="610" y="80" as="targetPoint"/>
                        <Array as="points">
                            <mxPoint x="710" y="264"/>
                            <mxPoint x="710" y="80"/>
                        </Array>
                    </mxGeometry>
                </mxCell>
            </root>
        </mxGraphModel>
    </diagram>
</mxfile>